<svg xmlns="http://www.w3.org/2000/svg" viewBox="0 0 512 512" width="512" height="512">
  <!-- Background -->
  <rect width="512" height="512" fill="#1e1e1e"/>
  
  <!-- Topographic Map Layers -->
  <g>
    <path d="M 478.3539094650206 256 Q 465.38662563486247 303.6428995198903, 435.90082328618587 359.86578875171466 Q 399.2033917528323 379.33642440054336, 352.3110013717421 422.81554770369314 Q 319.0232990397805 432.37347858435686, 256 458.4671604938271 Q 196.15962620027437 462.6781186125431, 142.6603017832648 452.3101158259092 Q 120.30640570593907 390.3869423436816, 86.35785942285202 353.9429355281207 Q 57.6008124274754 304.7645490397805, 57.89366255144034 256 Q 64.74383310645752 193.65844821673525, 68.01684316764752 147.46787379972562 Q 95.27000937531892 102.92229366365174, 150.08438957475985 72.54878142881242 Q 212.18005486968443 82.14826417119633, 255.99999999999997 76.59522633744857 Q 309.19144375857337 69.21513344555785, 356.10973936899865 82.60484508041611 Q 383.60729762512983 131.61098049631227, 438.3774896261169 150.7043072702331 Q 464.22192382540413 198.4338151577503, 478.3539094650206 256 Z" fill="#264F73" stroke="#ffffff22" stroke-width="1"/>
    <path d="M 451.6714403292181 256 Q 443.8655392006543 312.0621867626886, 414.3127244918436 347.4018941015089 Q 363.76339832273936 378.4875195218609, 340.75368120713307 402.79768197925 Q 284.0069846364883 420.7936765863328, 256 434.17110123456786 Q 211.12976117969822 435.6249388234823, 156.26106556927303 428.75290192680006 Q 127.30692097184367 383.67929012663734, 106.71491629210976 342.1897832647462 Q 82.65028901025241 308.3540222908093, 81.66642304526749 256 Q 81.63451140528754 219.26605480109737, 90.57482198752982 160.49172894375855 Q 121.81442923793497 136.94438076969254, 162.79426282578868 94.56292765735492 Q 203.74178161865566 92.27456197682561, 255.99999999999997 98.12379917695475 Q 292.46572359396436 111.70103039505388, 344.0965706447188 103.41226367076618 Q 374.4574466014722 120.39107333058193, 416.4921908709829 163.33979039780513 Q 447.36705222561494 211.99538388203013, 451.6714403292181 256 Z" fill="#2D5F8B" stroke="#ffffff22" stroke-width="1"/>
    <path d="M 424.98897119341564 256 Q 414.56667498866835 309.37036289437583, 392.72462569750127 334.93799945130314 Q 363.8789604482019 359.86083686540064, 329.196361042524 382.7798162548068 Q 287.879559122085 404.7694301438643, 256 409.8750419753086 Q 198.32211838134432 407.4606479233105, 169.86182935528126 405.19568802769095 Q 149.86299179330385 369.1938601318153, 127.07197316136754 330.4366310013717 Q 126.58865448191835 287.4990510973937, 105.43918353909467 256 Q 110.74741192633981 223.7625502743484, 113.13280080741211 173.51558408779147 Q 143.91440465610657 143.18869009795557, 175.50413607681747 116.57707388589745 Q 224.1923972565157 117.95641533801044, 255.99999999999997 119.6523720164609 Q 297.9622256515775 113.07581623343879, 332.083401920439 124.21968226111625 Q 370.86315113337025 151.39338838707388, 394.60689211584884 175.97527352537716 Q 409.40106951471455 221.11250816186552, 424.98897119341564 256 Z" fill="#356FA3" stroke="#ffffff22" stroke-width="1"/>
    <path d="M 398.3065020576132 256 Q 387.4900329989046 275.56742791495196, 371.13652690315894 322.4741048010974 Q 349.5500781292201 333.4563764311626, 317.63904087791497 362.7619505303636 Q 280.64102249657066 364.3007392569514, 256 385.5789827160494 Q 227.73669780521263 388.18524591202754, 183.46259314128946 381.6384741285819 Q 167.9746181703195 356.93065235921546, 147.42903003062528 318.68347873799723 Q 139.41590884247313 282.1996354595336, 129.21194403292182 256 Q 132.0825346696143 217.14793463648834, 135.69077962729443 186.53943923182442 Q 171.56993562983374 161.6552216484408, 188.2140093278463 138.59122011443995 Q 223.5319017832647 139.19382425475087, 255.99999999999997 141.18094485596708 Q 275.6809499314129 143.33949096071257, 320.07023319615917 145.02710085146632 Q 352.82441122082383 174.617925665788, 372.72159336071485 188.6107566529492 Q 390.32397569270313 235.7851879972565, 398.3065020576132 256 Z" fill="#4580B5" stroke="#ffffff22" stroke-width="1"/>
    <path d="M 371.6240329218107 256 Q 372.63561323136304 280.653381824417, 349.54842810881667 310.0102101508916 Q 330.7767513657938 339.27413821914683, 306.0817207133059 342.74408480592047 Q 272.29137475994514 339.38760392559396, 256 361.2829234567901 Q 219.3734994513032 357.7987327896335, 197.0633569272977 358.0812602294728 Q 191.64180010289078 326.8896668088379, 167.78608689988306 306.93032647462275 Q 161.13205209191685 272.45577537722903, 152.98470452674897 256 Q 155.63987963511101 239.42220788751712, 158.24875844717673 199.5632943758573 Q 184.78102215911645 172.3439754211483, 200.92388257887512 160.60536634298245 Q 241.76029519890258 165.9867887270468, 255.99999999999997 162.70951769547327 Q 295.6218964334705 152.4920545768753, 308.0570644718793 165.83451944181638 Q 330.34122686383296 170.06468516672436, 350.8362946055808 201.2462397805212 Q 370.1357707595805 236.013423388203, 371.6240329218107 256 Z" fill="#569FD3" stroke="#ffffff22" stroke-width="1"/>
    <path d="M 344.94156378600826 256 Q 350.00341568604375 274.6282246227709, 327.96032931447434 297.54631550068586 Q 317.55898015792303 297.3141222293532, 294.52440054869686 322.72621908147727 Q 272.8306159122085 340.0300241497921, 256 336.98686419753085 Q 243.23252331961592 326.3011085561283, 210.66412071330592 334.52404633036366 Q 200.8645375910176 319.07090348068255, 188.1431437691408 295.17717421124826 Q 171.73708423024942 268.2674708504801, 176.75746502057615 256 Q 191.41944682282994 240.58537002743483, 180.80673726705902 212.58714951989026 Q 193.54766424395476 185.254951416078, 213.63375582990395 182.61951257152498 Q 228.87757750342936 178.33530875489828, 256 184.23809053497942 Q 277.78506515775035 180.5335070819268, 296.04389574759944 186.64193803216642 Q 313.4135980623976 207.73366688988293, 328.95099585044676 213.88172290809325 Q 328.8364547153468 231.79721433470507, 344.94156378600826 256 Z" fill="#648FAF" stroke="#ffffff22" stroke-width="1"/>
    <path d="M 318.2590946502058 256 Q 299.5934403629467 267.4919563100137, 306.37223052013206 285.0824208504801 Q 289.8967645056079 307.5763284617818, 282.9670803840878 302.70835335703407 Q 262.2587459533608 316.2279999295458, 256 312.6908049382716 Q 249.31376941015088 303.69237321151206, 224.26488449931415 310.9668324312546 Q 205.64283063469998 283.4743623747494, 208.50020063839855 283.4240219478738 Q 211.23100525747088 279.6347218792867, 200.5302255144033 256 Q 189.42123623277107 230.6374210562414, 203.3647160869413 225.61100466392318 Q 207.86986188434855 210.3881496332299, 226.34362908093277 204.63365880006748 Q 254.88374869684498 216.23938433830534, 256 205.7666633744856 Q 262.1704561042524 207.46384847586734, 284.0307270233196 207.44935662251652 Q 282.04152481651784 207.62487083526372, 307.06569709531277 226.51720603566525 Q 306.42602756000207 233.13656083676267, 318.2590946502058 256 Z" fill="#A9CDEC" stroke="#ffffff22" stroke-width="1"/>
    <path d="M 291.5766255144033 256 Q 291.4056872620718 269.2445768861454, 284.78413172578973 272.61852620027435 Q 287.7901044088482 290.06075691643264, 271.40976021947876 282.69048763259093 Q 250.57576488340197 277.9815312648551, 256 288.3947456790123 Q 247.6172377229081 299.97252675578466, 237.86564828532238 287.4096185321455 Q 245.97667923393792 290.1000434910385, 228.85725750765633 271.67086968449934 Q 229.61381517358126 256.55752846364885, 224.30298600823045 256 Q 219.64524786493445 249.5783609739369, 225.9226949068236 238.6348598079561 Q 237.74761508029795 227.74357007260403, 239.05350233196157 226.64780502860998 Q 239.7788087791495 229.69901547726795, 256 227.29523621399176 Q 258.7780692729767 213.28307875869666, 272.01755829903976 228.25677521286656 Q 276.22500712619365 239.73829700286674, 285.1803983401787 239.15268916323728 Q 282.90448929354613 250.03146289437584, 291.5766255144033 256 Z" fill="#D6E5F3" stroke="#ffffff22" stroke-width="1"/>
  </g>
  
  <!-- Grid lines -->
  <g>
    <line x1="0" y1="0" x2="512" y2="0" stroke="#ffffff15" stroke-width="1"/>
    <line x1="0" y1="51.2" x2="512" y2="51.2" stroke="#ffffff15" stroke-width="1"/>
    <line x1="0" y1="102.4" x2="512" y2="102.4" stroke="#ffffff15" stroke-width="1"/>
    <line x1="0" y1="153.60000000000002" x2="512" y2="153.60000000000002" stroke="#ffffff15" stroke-width="1"/>
    <line x1="0" y1="204.8" x2="512" y2="204.8" stroke="#ffffff15" stroke-width="1"/>
    <line x1="0" y1="256" x2="512" y2="256" stroke="#ffffff15" stroke-width="1"/>
    <line x1="0" y1="307.2" x2="512" y2="307.2" stroke="#ffffff15" stroke-width="1"/>
    <line x1="0" y1="358.4" x2="512" y2="358.4" stroke="#ffffff15" stroke-width="1"/>
    <line x1="0" y1="409.59999999999997" x2="512" y2="409.59999999999997" stroke="#ffffff15" stroke-width="1"/>
    <line x1="0" y1="460.79999999999995" x2="512" y2="460.79999999999995" stroke="#ffffff15" stroke-width="1"/>
    <line x1="0" y1="511.99999999999994" x2="512" y2="511.99999999999994" stroke="#ffffff15" stroke-width="1"/>
    <line x1="0" y1="0" x2="0" y2="512" stroke="#ffffff15" stroke-width="1"/>
    <line x1="51.2" y1="0" x2="51.2" y2="512" stroke="#ffffff15" stroke-width="1"/>
    <line x1="102.4" y1="0" x2="102.4" y2="512" stroke="#ffffff15" stroke-width="1"/>
    <line x1="153.60000000000002" y1="0" x2="153.60000000000002" y2="512" stroke="#ffffff15" stroke-width="1"/>
    <line x1="204.8" y1="0" x2="204.8" y2="512" stroke="#ffffff15" stroke-width="1"/>
    <line x1="256" y1="0" x2="256" y2="512" stroke="#ffffff15" stroke-width="1"/>
    <line x1="307.2" y1="0" x2="307.2" y2="512" stroke="#ffffff15" stroke-width="1"/>
    <line x1="358.4" y1="0" x2="358.4" y2="512" stroke="#ffffff15" stroke-width="1"/>
    <line x1="409.59999999999997" y1="0" x2="409.59999999999997" y2="512" stroke="#ffffff15" stroke-width="1"/>
    <line x1="460.79999999999995" y1="0" x2="460.79999999999995" y2="512" stroke="#ffffff15" stroke-width="1"/>
    <line x1="511.99999999999994" y1="0" x2="511.99999999999994" y2="512" stroke="#ffffff15" stroke-width="1"/>
  </g>
  
  <!-- Compass Rose -->
  <g>
    <line x1="256" y1="256" x2="256" y2="76.80000000000001" stroke="#ffffff70" stroke-width="2"/>
    <text x="256" y="76.80000000000001" text-anchor="middle" dominant-baseline="middle" fill="#ffffff" font-family="monospace" font-weight="bold" font-size="24px">N</text>
    <line x1="256" y1="256" x2="435.2" y2="256" stroke="#ffffff70" stroke-width="2"/>
    <text x="435.2" y="256" text-anchor="middle" dominant-baseline="middle" fill="#ffffff" font-family="monospace" font-weight="bold" font-size="24px">E</text>
    <line x1="256" y1="256" x2="256" y2="435.2" stroke="#ffffff70" stroke-width="2"/>
    <text x="256" y="435.2" text-anchor="middle" dominant-baseline="middle" fill="#ffffff" font-family="monospace" font-weight="bold" font-size="24px">S</text>
    <line x1="256" y1="256" x2="76.80000000000001" y2="256" stroke="#ffffff70" stroke-width="2"/>
    <text x="76.80000000000001" y="256" text-anchor="middle" dominant-baseline="middle" fill="#ffffff" font-family="monospace" font-weight="bold" font-size="24px">W</text>
  </g>
  
  
  <!-- Center Point -->
  <circle cx="256" cy="256" r="8" fill="#ffffff"/>
  
  <!-- Title Text -->
  <!-- <text x="256" y="256" text-anchor="middle" fill="#000000" font-family="monospace" font-weight="bold" font-size="24px">CODE CARTOGRAPHER</text> -->
</svg>